HIERARCHY
ROOT Hips
{
	OFFSET 0.00000 0.00000 0.00000
	CHANNELS 6 Xposition Yposition Zposition Zrotation Yrotation Xrotation 
	JOINT LHipJoint
	{
		OFFSET 0 0 0
		CHANNELS 3 Zrotation Yrotation Xrotation
		JOINT LeftUpLeg
		{
			OFFSET 1.73240 -1.89999 0.57994
			CHANNELS 3 Zrotation Yrotation Xrotation
			JOINT LeftLeg
			{
				OFFSET 2.43106 -6.67930 0.00000
				CHANNELS 3 Zrotation Yrotation Xrotation
				JOINT LeftFoot
				{
					OFFSET 2.78854 -7.66147 0.00000
					CHANNELS 3 Zrotation Yrotation Xrotation
					JOINT LeftToeBase
					{
						OFFSET 0.17314 -0.47571 2.01064
						CHANNELS 3 Zrotation Yrotation Xrotation
						End Site
						{
							OFFSET 0.00000 -0.00000 1.04147
						}
					}
				}
			}
		}
	}
	JOINT RHipJoint
	{
		OFFSET 0 0 0
		CHANNELS 3 Zrotation Yrotation Xrotation
		JOINT RightUpLeg
		{
			OFFSET -1.57078 -1.89998 0.57994
			CHANNELS 3 Zrotation Yrotation Xrotation
			JOINT RightLeg
			{
				OFFSET -2.50166 -6.87326 0.00000
				CHANNELS 3 Zrotation Yrotation Xrotation
				JOINT RightFoot
				{
					OFFSET -2.77304 -7.61886 0.00000
					CHANNELS 3 Zrotation Yrotation Xrotation
					JOINT RightToeBase
					{
						OFFSET -0.23513 -0.64602 2.11039
						CHANNELS 3 Zrotation Yrotation Xrotation
						End Site
						{
							OFFSET -0.00000 -0.00000 1.10597
						}
					}
				}
			}
		}
	}
	JOINT LowerBack
	{
		OFFSET 0 0 0
		CHANNELS 3 Zrotation Yrotation Xrotation
		JOINT Spine
		{
			OFFSET -0.00908 2.00015 -0.35323
			CHANNELS 3 Zrotation Yrotation Xrotation
			JOINT Spine1
			{
				OFFSET 0.05647 2.02258 0.04270
				CHANNELS 3 Zrotation Yrotation Xrotation
				JOINT Neck
				{
					OFFSET 0 0 0
					CHANNELS 3 Zrotation Yrotation Xrotation
					JOINT Neck1
					{
						OFFSET -0.02074 1.73711 0.13117
						CHANNELS 3 Zrotation Yrotation Xrotation
						JOINT Head
						{
							OFFSET -0.02359 1.73615 -0.24320
							CHANNELS 3 Zrotation Yrotation Xrotation
							End Site
							{
								OFFSET -0.00579 1.75982 -0.09688
							}
						}
					}
				}
				JOINT LeftShoulder
				{
					OFFSET 0 0 0
					CHANNELS 3 Zrotation Yrotation Xrotation
					JOINT LeftArm
					{
						OFFSET 3.20537 1.11432 -0.27680
						CHANNELS 3 Zrotation Yrotation Xrotation
						JOINT LeftForeArm
						{
							OFFSET 5.05923 -0.00000 -0.00000
							CHANNELS 3 Zrotation Yrotation Xrotation
							JOINT LeftHand
							{
								OFFSET 3.51996 -0.00000 0.00000
								CHANNELS 3 Zrotation Yrotation Xrotation
								JOINT LeftFingerBase
								{
									OFFSET 0 0 0
									CHANNELS 3 Zrotation Yrotation Xrotation
									JOINT LeftHandIndex1
									{
										OFFSET 0.65238 -0.00000 0.00000
										CHANNELS 3 Zrotation Yrotation Xrotation
										End Site
										{
											OFFSET 0.52596 -0.00000 0.00000
										}
									}
								}
								JOINT LThumb
								{
									OFFSET 0 0 0
									CHANNELS 3 Zrotation Yrotation Xrotation
									End Site
									{
										OFFSET 0.53399 -0.00000 0.53399
									}
								}
							}
						}
					}
				}
				JOINT RightShoulder
				{
					OFFSET 0 0 0
					CHANNELS 3 Zrotation Yrotation Xrotation
					JOINT RightArm
					{
						OFFSET -2.96983 1.42602 -0.37449
						CHANNELS 3 Zrotation Yrotation Xrotation
						JOINT RightForeArm
						{
							OFFSET -5.40867 -0.00000 0.00000
							CHANNELS 3 Zrotation Yrotation Xrotation
							JOINT RightHand
							{
								OFFSET -3.12964 -0.00000 0.00000
								CHANNELS 3 Zrotation Yrotation Xrotation
								JOINT RightFingerBase
								{
									OFFSET 0 0 0
									CHANNELS 3 Zrotation Yrotation Xrotation
									JOINT RightHandIndex1
									{
										OFFSET -0.83271 -0.00000 0.00000
										CHANNELS 3 Zrotation Yrotation Xrotation
										End Site
										{
											OFFSET -0.67135 -0.00000 0.00000
										}
									}
								}
								JOINT RThumb
								{
									OFFSET 0 0 0
									CHANNELS 3 Zrotation Yrotation Xrotation
									End Site
									{
										OFFSET -0.68160 -0.00000 0.68160
									}
								}
							}
						}
					}
				}
			}
		}
	}
}
MOTION
Frames: 9
Frame Time: .0083333
2.0945 17.8048 6.0771 1.2691 -15.0579 -362.9350 0.0000 0.0000 0.0000 -22.4571 -8.8344 -11.4281 3.6744 11.7140 34.7277 0.7860 -2.3713 -16.1151 0.2561 -3.2561 -8.9927 0.0000 0.0000 0.0000 19.0209 16.5560 -14.1096 -4.7527 -13.0998 39.7433 -0.4660 9.9800 -13.1045 -0.8221 -5.7850 16.1620 -1.6188 -0.1915 22.6492 4.3973 -0.2485 3.3694 5.8773 -0.0118 -8.9224 0.0632 3.1103 -9.9940 -6.0233 5.1903 15.0428 -1.4882 2.0269 6.3858 -0.0000 0.0000 0.0000 -89.1527 14.7996 22.0825 35.7523 -45.3419 -15.3460 -0.0000 0.0000 -12.9450 19.0247 47.9438 14.3602 -7.1250 0.0000 -0.0000 -43.5417 76.1702 -33.0903 -0.0000 0.0000 0.0000 67.0592 15.2240 18.5754 -123.2703 55.3736 -88.3654 0.0000 0.0000 19.4876 -4.5439 2.6187 -0.2080 7.1250 -0.0000 -0.0000 16.7396 -27.2209 7.5312
2.0861 17.8075 6.0323 0.7340 -15.2880 -362.7430 0.0000 0.0000 0.0000 -21.7496 -9.0613 -11.8735 3.7199 11.7780 34.9512 0.7701 -1.9753 -16.0275 0.2674 -3.3268 -9.1898 0.0000 0.0000 0.0000 19.6842 17.0282 -14.1527 -4.7097 -13.0493 39.5532 -0.4505 9.7351 -12.8588 -0.7665 -5.5909 15.6019 -1.1138 -0.1050 23.4781 4.5479 0.0267 2.9830 5.7114 0.1334 -9.8293 -0.0085 3.0321 -9.6595 -6.0876 5.1063 15.1763 -1.5089 1.9797 6.3673 0.0000 0.0000 0.0000 -89.0854 15.0302 22.6652 35.9736 -45.4950 -15.5037 -0.0000 0.0000 -12.8107 18.7553 48.4033 14.2482 -7.1250 0.0000 -0.0000 -45.3487 76.3407 -34.7148 0.0000 0.0000 0.0000 67.0778 16.1538 21.4611 -118.2983 56.7466 -84.2394 0.0000 0.0000 20.2810 -6.0414 2.5534 -0.2701 7.1250 -0.0000 -0.0000 15.6357 -27.2983 6.9670
2.0843 17.8162 6.0108 1.0687 -15.4158 -362.5980 0.0000 0.0000 0.0000 -22.0796 -9.3585 -12.2323 3.7467 11.8155 35.0822 0.7670 -1.6401 -16.0709 0.2058 -2.9208 -8.0585 0.0000 0.0000 0.0000 19.2046 16.8825 -14.4912 -4.6717 -13.0042 39.3843 -0.4144 10.1200 -12.5865 -0.7566 -5.5552 15.4990 -1.0558 0.0141 23.5093 4.3702 0.1904 2.7196 5.4344 0.2174 -10.1593 -0.1565 2.9373 -9.3769 -6.0256 4.9951 15.3682 -1.4782 1.9223 6.3703 0.0000 -0.0000 0.0000 -89.0020 15.1174 23.1839 36.1285 -45.6013 -15.6142 -0.0000 0.0000 -12.2917 17.6750 49.0565 13.5337 -7.1250 0.0000 -0.0000 -48.5738 76.2845 -37.3420 0.0000 -0.0000 0.0000 66.7364 15.9985 24.0789 -113.6415 57.7790 -80.3215 0.0000 0.0000 21.8046 -6.7418 3.0643 -0.3621 7.1250 -0.0000 -0.0000 15.0470 -26.8070 6.8672
2.0738 17.8285 5.9912 1.2066 -15.6289 -362.4970 0.0000 0.0000 0.0000 -22.1826 -9.6466 -12.4508 3.7738 11.8532 35.2146 0.7751 -1.2713 -16.2516 0.1159 -2.1950 -6.0450 0.0000 0.0000 0.0000 19.0163 16.9126 -14.6897 -4.6418 -12.9687 39.2514 -0.3766 10.4415 -12.2803 -0.8107 -5.7458 16.0487 -1.0292 0.0904 23.3857 4.1986 0.2738 2.7957 5.1919 0.2469 -10.0144 -0.1725 2.9337 -9.8432 -5.8247 4.9892 15.6748 -1.4054 1.9172 6.5433 -0.0000 -0.0000 0.0000 -88.6993 14.6625 23.7748 36.1620 -45.6243 -15.6382 -0.0000 0.0000 -12.6056 18.2098 47.7251 13.6807 -7.1250 0.0000 -0.0000 -43.6096 75.7150 -32.7663 -0.0000 -0.0000 0.0000 66.8722 17.0512 26.5830 -107.9901 58.7411 -75.5140 0.0000 0.0000 23.3514 -7.5097 3.5340 -0.4656 7.1250 -0.0000 -0.0000 14.4187 -26.3511 6.7220
2.0603 17.8325 5.9687 1.3538 -15.6858 -362.4890 0.0000 0.0000 0.0000 -22.3123 -9.9419 -12.4416 3.7713 11.8497 35.2024 0.7755 -0.9647 -16.3408 0.0414 -1.3128 -3.6100 0.0000 0.0000 0.0000 18.8846 16.9613 -14.7980 -4.6278 -12.9520 39.1891 -0.3596 10.5230 -12.1202 -0.7795 -5.6369 15.7345 -1.1035 0.2320 23.4804 4.1279 0.4363 2.7340 5.1083 0.3290 -10.1505 -0.3335 2.8108 -9.8439 -5.5750 4.8206 15.9376 -1.3138 1.8396 6.6119 -0.0000 0.0000 0.0000 -88.6656 14.5148 24.3539 36.2829 -45.7068 -15.7247 -0.0000 0.0000 -12.9517 19.6036 46.1567 14.4062 -7.1250 0.0000 -0.0000 -37.4329 75.2167 -27.4736 -0.0000 0.0000 0.0000 66.7495 17.8120 28.8681 -101.6701 59.4791 -70.0889 0.0000 0.0000 25.0938 -7.9469 3.4707 -0.4842 7.1250 -0.0000 -0.0000 14.1012 -26.4131 6.5439
2.0421 17.8305 5.9413 1.2715 -15.5895 -362.3370 0.0000 0.0000 0.0000 -22.1648 -10.2354 -12.5443 3.7738 11.8532 35.2146 0.7756 -0.7169 -16.4147 0.0229 -0.9769 -2.6852 0.0000 0.0000 0.0000 18.9898 17.0408 -15.0101 -4.6144 -12.9360 39.1293 -0.3400 10.4245 -11.8580 -0.8353 -5.8302 16.2924 -1.0258 0.3444 23.4565 4.1592 0.6089 2.6854 5.0442 0.4101 -10.2091 -0.3572 2.6928 -9.9679 -5.4901 4.6635 16.1322 -1.2949 1.7622 6.6886 -0.0000 -0.0000 0.0000 -88.6067 14.2140 25.0654 36.3458 -45.7496 -15.7697 -0.0000 0.0000 -12.9896 20.2614 45.9436 14.8576 -7.1250 0.0000 -0.0000 -36.1022 75.3184 -26.5147 -0.0000 -0.0000 0.0000 66.5829 18.7081 30.9025 -94.3599 59.9281 -63.7749 0.0000 0.0000 26.7808 -8.5639 3.2348 -0.4869 7.1250 -0.0000 -0.0000 13.6687 -26.6446 6.2551
2.0201 17.8303 5.9150 1.2979 -15.5377 -362.1720 0.0000 0.0000 0.0000 -22.0858 -10.6402 -12.7121 3.7746 11.8543 35.2186 0.7820 -0.5244 -16.5421 0.0032 -0.3664 -1.0068 0.0000 0.0000 0.0000 18.9883 17.1794 -15.2683 -4.6096 -12.9301 39.1075 -0.3351 10.3610 -11.7774 -0.7988 -5.7046 15.9297 -1.1477 0.5352 23.4009 4.1955 0.8317 2.6808 5.0843 0.5213 -10.2082 -0.4408 2.5768 -10.2368 -5.3520 4.5095 16.2560 -1.2472 1.6871 6.7661 0.0000 -0.0000 0.0000 -88.4634 13.5965 25.9817 35.9532 -45.4809 -15.4891 -0.0000 0.0000 -12.8287 20.4041 46.1215 15.0095 -7.1250 0.0000 -0.0000 -36.4508 75.4999 -26.9167 0.0000 -0.0000 0.0000 66.5305 19.6613 32.5895 -86.4490 59.9523 -56.9252 0.0000 0.0000 28.0464 -8.5956 3.4265 -0.5176 7.1250 -0.0000 -0.0000 13.6233 -26.4561 6.2954
1.9983 17.8276 5.8937 1.2991 -15.4665 -362.1930 0.0000 0.0000 0.0000 -22.0567 -10.6402 -12.7261 3.7739 11.8533 35.2149 0.7822 -0.2035 -16.6485 0.0077 -0.5672 -1.5587 0.0000 0.0000 0.0000 19.0565 17.1836 -15.2247 -4.6028 -12.9221 39.0774 -0.3358 10.3726 -11.7900 -0.8018 -5.7150 15.9597 -1.3073 0.6852 23.5462 4.2554 0.9958 2.6706 5.1961 0.6092 -10.3181 -0.4283 2.4920 -10.3620 -5.3427 4.4004 16.3763 -1.2546 1.6310 6.8238 -0.0000 0.0000 0.0000 -88.3726 13.1576 26.7969 35.5737 -45.2174 -15.2191 -0.0000 0.0000 -12.5930 20.2265 46.4241 14.9455 -7.1250 0.0000 -0.0000 -37.5298 75.6435 -27.8661 -0.0000 0.0000 0.0000 66.7548 20.6317 34.1764 -78.1007 59.4582 -49.7137 0.0000 0.0000 29.1848 -8.5619 3.6644 -0.5513 7.1250 -0.0000 -0.0000 13.6220 -26.2223 6.3717
1.9766 17.8253 5.8800 1.3678 -15.1690 -362.2540 0.0000 0.0000 0.0000 -22.1698 -10.7262 -12.5904 3.7620 11.8368 35.1571 0.7720 0.0845 -16.6380 0.0545 -1.5064 -4.1432 0.0000 0.0000 0.0000 19.0337 16.9396 -15.1751 -4.5995 -12.9181 39.0626 -0.3381 10.3894 -11.8223 -0.8568 -5.9029 16.5030 -1.3890 0.7366 23.5752 4.2484 1.0432 2.6574 5.2215 0.6362 -10.3546 -0.3926 2.3611 -10.4183 -5.3182 4.2161 16.4385 -1.2688 1.5444 6.8486 0.0000 -0.0000 0.0000 -88.3844 12.9432 27.3304 35.5150 -45.1764 -15.1774 -0.0000 0.0000 -12.2109 20.2002 46.3554 14.9091 -7.1250 0.0000 -0.0000 -37.3561 75.5855 -27.6869 0.0000 -0.0000 0.0000 67.2216 21.3754 35.6632 -69.6057 58.3686 -42.4348 0.0000 0.0000 29.9291 -9.0497 3.9669 -0.6313 7.1250 -0.0000 -0.0000 13.2271 -25.9229 6.2726
